<svg version="1.2" xmlns="http://www.w3.org/2000/svg" viewBox="0 0 389 129" width="389" height="129">
	<style>
		.s0 { fill: #ff0000 } 
		.s1 { fill: #ffffff } 
	</style>
	<g id="Background">
		<path id="Path 1" class="s0" d="m24 27.5v6.5c14.33 0 18 0.41 18 1 0 0.59-3.67 1-9 1h-9v12c16.33 0 18 0.28 18 1.5 0 1.22-1.67 1.5-9 1.5h-9v12c16.33 0 18 0.28 18 1.5 0 1.22-1.67 1.5-9 1.5h-9v12c16.33 0 18 0.28 18 1.5 0 1.22-1.67 1.5-9 1.5h-9v12c14.33 0 18 0.41 18 1 0 0.59-3.67 1-9 1h-9v13h341v-13c-14.33 0-18-0.41-18-1 0-0.59 3.67-1 9-1h9v-12c-16.33 0-18-0.28-18-1.5 0-1.22 1.67-1.5 9-1.5h9v-12c-16.33 0-18-0.28-18-1.5 0-1.22 1.67-1.5 9-1.5h9v-12c-16.33 0-18-0.28-18-1.5 0-1.22 1.67-1.5 9-1.5h9v-12c-14.33 0-18-0.41-18-1 0-0.59 3.67-1 9-1h9v-13h-341z"/>
		<path id="Path 2" class="s1" d="m76.5 32.97c-2.2 0.47-5.35 1.38-7 2.02-1.65 0.63-4.55 2.36-6.44 3.83-1.9 1.47-4.48 4.93-5.74 7.68-1.27 2.75-2.3 6.24-2.31 7.75-0.01 1.51 0.66 4.32 1.49 6.25q1.5 3.5 5.5 5.5c2.2 1.1 7.49 2.95 11.75 4.11 4.26 1.16 8.55 2.84 9.53 3.75 0.98 0.9 1.77 2.65 1.75 3.89-0.02 1.24-1.04 3.14-2.28 4.22-1.24 1.09-3.49 2.21-5 2.5-1.51 0.29-4.17 0.19-5.9-0.22-1.73-0.41-3.75-1.65-4.5-2.75-0.75-1.1-1.36-2.79-1.36-3.75 0.01-1.53-1.06-1.75-8.49-1.75h-8.5c-0.58 4.26-0.38 7.07 0.07 9 0.45 1.93 2.31 4.89 4.13 6.59 2.3 2.16 5.12 3.49 9.3 4.38 3.49 0.74 8.93 1.05 13 0.74 3.85-0.29 9.48-1.46 12.5-2.59 3.15-1.18 7.08-3.67 9.2-5.84 2.04-2.08 4.4-5.47 5.25-7.53 0.85-2.06 1.55-5.44 1.55-7.5-0.01-2.06-0.91-5.21-2-7-1.1-1.79-3.24-3.88-4.75-4.66-1.51-0.77-6.58-2.38-11.25-3.58-4.67-1.19-9.3-2.92-10.28-3.84-0.98-0.92-1.77-2.46-1.75-3.42 0.02-0.96 1.04-2.66 2.28-3.77 1.46-1.31 3.66-2.02 6.25-2.03 2.54-0.01 4.63 0.64 5.72 1.77 0.95 0.98 1.74 2.57 1.75 3.53 0.03 1.53 1.11 1.75 8.53 1.75 6.67 0 8.61-0.32 9-1.5 0.27-0.82 0.51-2.74 0.53-4.25 0.01-1.51-1-4.32-2.27-6.25-1.26-1.93-4.08-4.37-6.27-5.44-2.63-1.28-6.55-2.03-11.49-2.2-4.12-0.14-9.3 0.13-11.5 0.61zm45.98 1.28c-0.25 0.69-3.17 13.96-6.47 29.5-3.31 15.54-6.01 28.93-6.01 29.75 0 1.29 3.28 1.5 23.5 1.5 17.93 0 23.59-0.3 23.89-1.25 0.21-0.69 0.66-3.39 1-6l0.61-4.75-29.64-0.5 2.64-12.5h28c1.55-7.75 2-10.45 2-11 0-0.62-5.23-0.99-13.75-0.98l-13.75 0.03c1.26-5.08 1.94-8.02 2.31-9.82l0.69-3.27 30.5 0.04c0.88-5.81 1.33-8.51 1.57-9.75l0.43-2.25c-41.43 0-47.16 0.3-47.52 1.25zm50.43 30.24l-6.41 30.49c14.98 0.02 15.53-0.13 16-2.23 0.28-1.24 2.29-10.57 4.49-20.75 2.19-10.18 4.26-19.62 4.6-21 0.43-1.75 2.09 3.84 5.5 18.5 2.68 11.55 5.11 22.01 5.39 23.25 0.5 2.18 0.89 2.25 12.52 2.25 10.58 0 12.06-0.21 12.47-1.75 0.26-0.96 3.19-14.57 6.51-30.25 3.33-15.68 6.04-28.61 6.03-28.75 0-0.14-3.5-0.25-7.76-0.25l-7.75-0.01c-6.81 32.17-9.06 42.06-9.39 42.73-0.34 0.68-2.97-8.66-5.86-20.75l-5.25-21.97h-24.67zm79.92-0.84c-10.08 16.31-18.45 30.03-18.59 30.5-0.13 0.47 3.58 0.85 8.25 0.85h8.5l6.63-11.5 25.37-0.5 1 12c19.02 0 19.96-0.17 19.57-1.75-0.23-0.96-2.82-14.69-5.75-30.51l-5.32-28.76-21.32 0.02zm70.17-29.4c0.01 0.14-2.69 12.85-6 28.25-3.3 15.4-6.23 29.01-6.51 30.25-0.49 2.2-0.3 2.25 8.25 2.25h8.75l13-60.97c-13.56-0.02-17.49 0.08-17.49 0.22z"/>
		<path id="Path 3" class="s0" d="m271.57 57.7c-3.8 6.7-6.84 12.44-6.74 12.75 0.09 0.3 3.77 0.55 8.17 0.55h8c-0.85-5.81-1.42-11.55-1.81-16.5l-0.7-9z"/>
	</g>
</svg>